# xmcd
# 
# Track frame offsets:
#     183
#     14733
#     29933
#     47783
#     59858
#     74983
#     91183
#     103708
#     118608
#     130608
#     143958
#     152933
#     169508
#     177333
#     186208
#     205233
# 
# Disc length: 2836
# 
# Revision: 1
# Processed by: cddbd v1.5.2PL0 Copyright (c) Steve Scherf et al.
# Submitted via: BonkEnc v1.0beta4
# 
DISCID=fa0b1210
DTITLE=Raffaele Serra - Musica Per Pensare Con Il Cuore
DYEAR=1993
DGENRE=New Age
TTITLE0=Venus Victrix
TTITLE1=Stillborn Love
TTITLE2=Winged Hours
TTITLE3=Her Gifts
TTITLE4=In A Sheltered Corner
TTITLE5=Fate Sowing The Stars
TTITLE6=Silent Noon
TTITLE7=Journey Around A Zero
TTITLE8=Mid-Rapture
TTITLE9=Nuptial Sleep
TTITLE10=Sirius Remembered
TTITLE11=Behind Neptune's Throne
TTITLE12=Sleepwalk
TTITLE13=Ghosts And Glory
TTITLE14=Angels Without Wings
TTITLE15=Mid-Rapture (Return)
EXTD=YEAR: 1993
EXTT0=
EXTT1=
EXTT2=
EXTT3=
EXTT4=
EXTT5=
EXTT6=
EXTT7=
EXTT8=
EXTT9=
EXTT10=
EXTT11=
EXTT12=
EXTT13=
EXTT14=
EXTT15=
PLAYORDER=
